<svg width="316" height="87" viewBox="0 0 316 87" fill="none" xmlns="http://www.w3.org/2000/svg">
<path d="M60 12H316V68H5V51H0V21H5V12H19V0H60V12Z" fill="#68D4FF"/>
<path d="M166 60H316V87H166V60Z" fill="#68D4FF"/>
<path d="M13 21H63V61H13L13 21Z" fill="#FF9D6C"/>
<path d="M63 21V61H13L13 21H63ZM16 58H60V24H16V58Z" fill="black"/>
<path d="M61 29H69V43H61V29Z" fill="#FF9D6C"/>
<path d="M69 29V43H61V29H69ZM64 40H66V32H64V40Z" fill="black"/>
<path d="M50 17V21H47V17H50Z" fill="black"/>
<path d="M31 17V21H28V17H31Z" fill="black"/>
<path d="M50 13V17H47V13H50Z" fill="black"/>
<path d="M31 13V17H28V13H31Z" fill="black"/>
<path d="M50 9V13H47V9H50Z" fill="black"/>
<path d="M31 9V13H28V9H31Z" fill="black"/>
<path d="M7 29H15V43H7V29Z" fill="#FF9D6C"/>
<path d="M15 29V43H7V29H15ZM10 40H12V32H10V40Z" fill="black"/>
<path d="M47 31H50V42H47V31Z" fill="#FF9D6C"/>
<path d="M50 31V42H47V31H50Z" fill="black"/>
<path d="M28 31H31V42H28V31Z" fill="#FF9D6C"/>
<path d="M31 31V42H28V31H31Z" fill="black"/>
<path d="M43 35H54V38H43V35Z" fill="#FF9D6C"/>
<path d="M54 38H43V35H54V38Z" fill="black"/>
<path d="M24 35H35V38H24V35Z" fill="#FF9D6C"/>
<path d="M35 38H24V35H35V38Z" fill="black"/>
<path d="M33 42H45V56H33V42Z" fill="#FF9D6C"/>
<path d="M45 42V56H33V42H45ZM36 53H42V45H36V53Z" fill="black"/>
<path d="M298.699 24.1575H303.997V38.2983H301.328V41.8593H298.699V56H293.4V41.8593H290.731V38.2983H288.102V24.1575H293.4V38.2983H298.699V24.1575Z" fill="black"/>
<path d="M276.252 52.3339H284.18V55.8433H270.953V24.0007H276.252V52.3339Z" fill="black"/>
<path d="M264.411 24.0024H267.08V55.845H264.411V52.3356H261.743V48.7746H259.113V45.2652H256.444V41.7042H253.814V38.1948H251.146V55.845H248.516V24.0024H251.146V27.5634H253.814V31.0728H256.444V34.6338H259.113V38.1948H261.743V41.7042H264.411V24.0024Z" fill="black"/>
<path d="M242 27.5649H244.669V52.3371H242V55.8465H231.403V52.3371H228.773V27.5649H231.403V24.0039H242V27.5649ZM234.072 52.3371H239.37V27.5649H234.072V52.3371Z" fill="black"/>
<path d="M215.328 31.0706H212.699V27.5612H215.328V31.0706ZM204.731 24.0002H212.699V27.5612H207.4V34.6316H210.03V38.1926H212.699V41.702H215.328V52.3334H212.699V55.8428H204.731V52.3334H210.03V45.263H207.4V41.702H204.731V38.1926H202.102V27.5612H204.731V24.0002ZM202.102 48.7724H204.731V52.3334H202.102V48.7724Z" fill="black"/>
<path d="M195.567 24.002H198.236V55.8445H195.567V52.3351H192.899V48.7741H190.269V45.2647H187.6V41.7037H184.97V38.1943H182.302V55.8445H179.672V24.002H182.302V27.563H184.97V31.0723H187.6V34.6333H190.269V38.1943H192.899V41.7037H195.567V24.002Z" fill="black"/>
<path d="M173.141 27.5642H175.81V55.8457H170.511V41.705H165.213V55.8457H159.914V27.5642H162.544V24.0032H173.141V27.5642ZM165.213 38.1956H170.511V27.5642H165.213V38.1956Z" fill="black"/>
<path d="M153.37 24H156V55.8426H150.702V38.1924H148.072V41.7018H145.403V45.2628H142.735V48.7722H140.105V45.2628H137.436V41.7018H134.806V38.1924H132.138V55.8426H129.508V24H132.138V27.561H134.806V31.0704H137.436V34.6314H140.105V38.1924H145.403V34.6314H148.072V31.0704H150.702V27.561H153.37V24Z" fill="black"/>
<path d="M120.355 24.0015H125.653V52.3346H122.985V55.844H112.388V52.3346H109.758V24.0015H115.056V52.3346H120.355V24.0015Z" fill="black"/>
<path d="M100.597 24H105.896V55.8426H100.597V41.7018H95.2985V55.8426H90V24H95.2985V38.1924H100.597V24Z" fill="black"/>
<path d="M281.785 71.2319H282.888V74.5279H281.785V75.6159H282.888V79.9999H280.696V75.6159H278.504V79.9999H276.312V70.1279H281.785V71.2319ZM278.504 74.5279H280.696V71.2319H278.504V74.5279Z" fill="black"/>
<path d="M271.411 71.2319V74.5279H273.603V75.6159H271.411V78.9119H274.691V79.9999H269.219V70.1279H274.691V71.2319H271.411Z" fill="black"/>
<path d="M266.513 70.1279H267.601V79.9999H265.409V74.5279H264.321V75.6159H263.217V76.7199H262.113V77.8079H261.025V76.7199H259.921V75.6159H258.833V74.5279H257.729V79.9999H256.641V70.1279H257.729V71.2319H258.833V72.3199H259.921V73.4239H261.025V74.5279H263.217V73.4239H264.321V72.3199H265.409V71.2319H266.513V70.1279Z" fill="black"/>
<path d="M252.844 70.1279H255.036V79.9999H252.844V70.1279Z" fill="black"/>
<path d="M250.144 71.2319H251.248V79.9999H249.056V75.6159H246.864V79.9999H244.672V71.2319H245.76V70.1279H250.144V71.2319ZM246.864 74.5279H249.056V71.2319H246.864V74.5279Z" fill="black"/>
<path d="M239.77 78.9119H243.05V79.9999H237.578V70.1279H239.77V78.9119Z" fill="black"/>
<path d="M235.982 77.8079V78.9119H234.878V77.8079H235.982ZM235.982 72.3199H234.878V71.2319H235.982V72.3199ZM230.494 70.1279H234.878V71.2319H231.598V78.9119H234.878V79.9999H230.494V78.9119H229.406V71.2319H230.494V70.1279Z" fill="black"/>
<path d="M227.785 72.3199H226.696V71.2319H227.785V72.3199ZM223.401 70.1279H226.696V71.2319H224.505V73.4239H225.593V74.5279H226.696V75.6159H227.785V78.9119H226.696V79.9999H223.401V78.9119H225.593V76.7199H224.505V75.6159H223.401V74.5279H222.312V71.2319H223.401V70.1279ZM222.312 77.8079H223.401V78.9119H222.312V77.8079Z" fill="black"/>
<path d="M218.516 70.1279H220.708V79.9999H218.516V70.1279Z" fill="black"/>
<path d="M215.816 71.2319H216.92V78.9119H215.816V79.9999H210.344V70.1279H215.816V71.2319ZM212.536 78.9119H214.728V71.2319H212.536V78.9119Z" fill="black"/>
<path d="M203.706 71.2319H204.81V78.9119H203.706V79.9999H198.234V70.1279H203.706V71.2319ZM200.426 78.9119H202.618V71.2319H200.426V78.9119Z" fill="black"/>
<path d="M195.535 71.2319H196.639V79.9999H194.447V75.6159H192.255V79.9999H190.062V71.2319H191.151V70.1279H195.535V71.2319ZM192.255 74.5279H194.447V71.2319H192.255V74.5279Z" fill="black"/>
<path d="M185.161 71.2319V74.5279H187.353V75.6159H185.161V78.9119H188.441V79.9999H182.969V70.1279H188.441V71.2319H185.161Z" fill="black"/>
<path d="M180.269 71.2319H181.373V74.5279H180.269V75.6159H181.373V79.9999H179.181V75.6159H176.989V79.9999H174.797V70.1279H180.269V71.2319ZM176.989 74.5279H179.181V71.2319H176.989V74.5279Z" fill="black"/>
<path d="M298 79H310V81H298V79Z" fill="black"/>
<path d="M308 69H310V81H308V69Z" fill="black"/>
<path d="M304 75H306V77H304V75Z" fill="black"/>
<path d="M306 77H308V79H306V77Z" fill="black"/>
<path d="M302 73H304V75H302V73Z" fill="black"/>
<path d="M300 71H302V73H300V71Z" fill="black"/>
<path d="M298 69H300V71H298V69Z" fill="black"/>
</svg>
