<svg width="316" height="68" viewBox="0 0 316 68" fill="none" xmlns="http://www.w3.org/2000/svg">
<path d="M60 12H316V68H5V51H0V21H5V12H19V0H60V12Z" fill="#7EDAFF"/>
<path d="M166 60H316V68H166V60Z" fill="#7EDAFF"/>
<rect x="14.5" y="22.5" width="47" height="37" fill="#FCFF9D" stroke="black" stroke-width="3"/>
<rect x="62.5" y="30.5" width="5" height="11" fill="#FCFF9D" stroke="black" stroke-width="3"/>
<rect x="47.75" y="9.75" width="1.5" height="10.5" fill="#FCFF9D" stroke="black" stroke-width="1.5"/>
<rect x="28.75" y="9.75" width="1.5" height="10.5" fill="#FCFF9D" stroke="black" stroke-width="1.5"/>
<rect x="8.5" y="30.5" width="5" height="11" fill="#FCFF9D" stroke="black" stroke-width="3"/>
<rect x="44.5" y="33.5" width="6" height="6" fill="#FCFF9D" stroke="black" stroke-width="3"/>
<rect x="25.5" y="33.5" width="6" height="6" fill="#FCFF9D" stroke="black" stroke-width="3"/>
<rect x="29.75" y="50.75" width="16.5" height="1.5" fill="#FCFF9D" stroke="black" stroke-width="1.5"/>
<rect x="47.75" y="47.75" width="1.5" height="1.5" fill="#FCFF9D" stroke="black" stroke-width="1.5"/>
<path d="M298.699 24.1575H303.997V38.2983H301.328V41.8593H298.699V56H293.4V41.8593H290.731V38.2983H288.102V24.1575H293.4V38.2983H298.699V24.1575Z" fill="black"/>
<path d="M276.252 52.3339H284.18V55.8433H270.953V24.0007H276.252V52.3339Z" fill="black"/>
<path d="M264.411 24.0024H267.08V55.845H264.411V52.3356H261.743V48.7746H259.113V45.2652H256.444V41.7042H253.814V38.1948H251.146V55.845H248.516V24.0024H251.146V27.5634H253.814V31.0728H256.444V34.6338H259.113V38.1948H261.743V41.7042H264.411V24.0024Z" fill="black"/>
<path d="M242 27.5649H244.669V52.3371H242V55.8465H231.403V52.3371H228.773V27.5649H231.403V24.0039H242V27.5649ZM234.072 52.3371H239.37V27.5649H234.072V52.3371Z" fill="black"/>
<path d="M215.328 31.0706H212.699V27.5612H215.328V31.0706ZM204.731 24.0002H212.699V27.5612H207.4V34.6316H210.03V38.1926H212.699V41.702H215.328V52.3334H212.699V55.8428H204.731V52.3334H210.03V45.263H207.4V41.702H204.731V38.1926H202.102V27.5612H204.731V24.0002ZM202.102 48.7724H204.731V52.3334H202.102V48.7724Z" fill="black"/>
<path d="M195.567 24.002H198.236V55.8445H195.567V52.3351H192.899V48.7741H190.269V45.2647H187.6V41.7037H184.97V38.1943H182.302V55.8445H179.672V24.002H182.302V27.563H184.97V31.0723H187.6V34.6333H190.269V38.1943H192.899V41.7037H195.567V24.002Z" fill="black"/>
<path d="M173.141 27.5642H175.81V55.8457H170.511V41.705H165.213V55.8457H159.914V27.5642H162.544V24.0032H173.141V27.5642ZM165.213 38.1956H170.511V27.5642H165.213V38.1956Z" fill="black"/>
<path d="M153.37 24H156V55.8426H150.702V38.1924H148.072V41.7018H145.403V45.2628H142.735V48.7722H140.105V45.2628H137.436V41.7018H134.806V38.1924H132.138V55.8426H129.508V24H132.138V27.561H134.806V31.0704H137.436V34.6314H140.105V38.1924H145.403V34.6314H148.072V31.0704H150.702V27.561H153.37V24Z" fill="black"/>
<path d="M120.355 24.0015H125.653V52.3346H122.985V55.844H112.388V52.3346H109.758V24.0015H115.056V52.3346H120.355V24.0015Z" fill="black"/>
<path d="M100.597 24H105.896V55.8426H100.597V41.7018H95.2985V55.8426H90V24H95.2985V38.1924H100.597V24Z" fill="black"/>
</svg>
