<svg width="316" height="87" viewBox="0 0 316 87" fill="none" xmlns="http://www.w3.org/2000/svg">
<path d="M60 12H316V68H5V51H0V21H5V12H19V0H60V12Z" fill="#32C5FF"/>
<path d="M205 60H316V87H205V60Z" fill="#32C5FF"/>
<path d="M305.441 70.2319H306.545V77.9119H305.441V78.9999H299.969V69.1279H305.441V70.2319ZM302.161 77.9119H304.353V70.2319H302.161V77.9119Z" fill="black"/>
<path d="M297.269 70.2319H298.373V78.9999H296.181V74.6159H293.989V78.9999H291.797V70.2319H292.885V69.1279H297.269V70.2319ZM293.989 73.5279H296.181V70.2319H293.989V73.5279Z" fill="black"/>
<path d="M286.895 70.2319V73.5279H289.087V74.6159H286.895V77.9119H290.175V78.9999H284.703V69.1279H290.175V70.2319H286.895Z" fill="black"/>
<path d="M282.003 70.2319H283.107V73.5279H282.003V74.6159H283.107V78.9999H280.915V74.6159H278.723V78.9999H276.531V69.1279H282.003V70.2319ZM278.723 73.5279H280.915V70.2319H278.723V73.5279Z" fill="black"/>
<path d="M269.894 70.2319H270.998V77.9119H269.894V78.9999H265.51V77.9119H264.422V70.2319H265.51V69.1279H269.894V70.2319ZM266.614 77.9119H268.806V70.2319H266.614V77.9119Z" fill="black"/>
<path d="M256.25 69.1279H262.826V70.2319H260.634V78.9999H258.442V70.2319H256.25V69.1279Z" fill="black"/>
<path d="M247.415 73.5279H246.311V74.6159H247.415V75.7199H248.503V76.8079H249.607V77.9119H250.711V78.9999H248.503V77.9119H247.415V76.8079H246.311V75.7199H245.223V78.9999H243.031V69.1279H245.223V72.4239H246.311V71.3199H247.415V70.2319H248.503V69.1279H250.711V70.2319H249.607V71.3199H248.503V72.4239H247.415V73.5279Z" fill="black"/>
<path d="M241.435 76.8079V77.9119H240.331V76.8079H241.435ZM241.435 71.3199H240.331V70.2319H241.435V71.3199ZM235.947 69.1279H240.331V70.2319H237.051V77.9119H240.331V78.9999H235.947V77.9119H234.859V70.2319H235.947V69.1279Z" fill="black"/>
<path d="M231.062 69.1279H233.255V78.9999H231.062V69.1279Z" fill="black"/>
<path d="M226.161 77.9119H229.441V78.9999H223.969V69.1279H226.161V77.9119Z" fill="black"/>
<path d="M222.373 76.8079V77.9119H221.269V76.8079H222.373ZM222.373 71.3199H221.269V70.2319H222.373V71.3199ZM216.885 69.1279H221.269V70.2319H217.989V77.9119H221.269V78.9999H216.885V77.9119H215.797V70.2319H216.885V69.1279Z" fill="black"/>
<path d="M13 21H63V61H13V21Z" fill="#FCFF9D"/>
<path d="M63 21V61H13V21H63ZM16 58H60V24H16V58Z" fill="black"/>
<path d="M61 29H69V43H61V29Z" fill="#FCFF9D"/>
<path d="M69 29V43H61V29H69ZM64 40H66V32H64V40Z" fill="black"/>
<path d="M47 9H50V21H47V9Z" fill="#FCFF9D"/>
<path d="M50 9V21H47V9H50Z" fill="black"/>
<path d="M28 9H31V21H28V9Z" fill="#FCFF9D"/>
<path d="M31 9V21H28V9H31Z" fill="black"/>
<path d="M7 29H15V43H7V29Z" fill="#FCFF9D"/>
<path d="M15 29V43H7V29H15ZM10 40H12V32H10V40Z" fill="black"/>
<path d="M43 32H52V41H43V32Z" fill="#FCFF9D"/>
<path d="M52 32V41H43V32H52ZM46 38H49V35H46V38Z" fill="black"/>
<path d="M24 32H33V41H24V32Z" fill="#FCFF9D"/>
<path d="M33 32V41H24V32H33ZM27 38H30V35H27V38Z" fill="black"/>
<path d="M29 50H47V53H29V50Z" fill="#FCFF9D"/>
<path d="M47 53H29V50H47V53Z" fill="black"/>
<path d="M47 47H50V50H47V47Z" fill="#FCFF9D"/>
<path d="M50 50H47V47H50V50Z" fill="black"/>
<path d="M298.699 24.1575H303.997V38.2983H301.328V41.8593H298.699V56H293.4V41.8593H290.731V38.2983H288.102V24.1575H293.4V38.2983H298.699V24.1575Z" fill="black"/>
<path d="M276.252 52.3339H284.18V55.8433H270.953V24.0007H276.252V52.3339Z" fill="black"/>
<path d="M264.411 24.0024H267.08V55.845H264.411V52.3356H261.743V48.7746H259.113V45.2652H256.444V41.7042H253.814V38.1948H251.146V55.845H248.516V24.0024H251.146V27.5634H253.814V31.0728H256.444V34.6338H259.113V38.1948H261.743V41.7042H264.411V24.0024Z" fill="black"/>
<path d="M242 27.5649H244.669V52.3371H242V55.8465H231.403V52.3371H228.773V27.5649H231.403V24.0039H242V27.5649ZM234.072 52.3371H239.37V27.5649H234.072V52.3371Z" fill="black"/>
<path d="M215.328 31.0706H212.699V27.5612H215.328V31.0706ZM204.731 24.0002H212.699V27.5612H207.4V34.6316H210.03V38.1926H212.699V41.702H215.328V52.3334H212.699V55.8428H204.731V52.3334H210.03V45.263H207.4V41.702H204.731V38.1926H202.102V27.5612H204.731V24.0002ZM202.102 48.7724H204.731V52.3334H202.102V48.7724Z" fill="black"/>
<path d="M195.567 24.002H198.236V55.8445H195.567V52.3351H192.899V48.7741H190.269V45.2647H187.6V41.7037H184.97V38.1943H182.302V55.8445H179.672V24.002H182.302V27.563H184.97V31.0723H187.6V34.6333H190.269V38.1943H192.899V41.7037H195.567V24.002Z" fill="black"/>
<path d="M173.141 27.5642H175.81V55.8457H170.511V41.705H165.213V55.8457H159.914V27.5642H162.544V24.0032H173.141V27.5642ZM165.213 38.1956H170.511V27.5642H165.213V38.1956Z" fill="black"/>
<path d="M153.37 24H156V55.8426H150.702V38.1924H148.072V41.7018H145.403V45.2628H142.735V48.7722H140.105V45.2628H137.436V41.7018H134.806V38.1924H132.138V55.8426H129.508V24H132.138V27.561H134.806V31.0704H137.436V34.6314H140.105V38.1924H145.403V34.6314H148.072V31.0704H150.702V27.561H153.37V24Z" fill="black"/>
<path d="M120.355 24.0015H125.653V52.3346H122.985V55.844H112.388V52.3346H109.758V24.0015H115.056V52.3346H120.355V24.0015Z" fill="black"/>
<path d="M100.597 24H105.896V55.8426H100.597V41.7018H95.2985V55.8426H90V24H95.2985V38.1924H100.597V24Z" fill="black"/>
</svg>
