<svg width="62" height="52" viewBox="0 0 62 52" fill="none" xmlns="http://www.w3.org/2000/svg">
<path d="M54 20H62V34H54V20Z" fill="#FCFF9D"/>
<path d="M0 20H8V34H0V20Z" fill="#FCFF9D"/>
<path d="M6 12H56V52H6V12Z" fill="#FCFF9D"/>
<path d="M56 12V52H6V12H56ZM9 49H53V15H9V49Z" fill="black"/>
<path d="M62 20V34H54V20H62ZM57 31H59V23H57V31Z" fill="black"/>
<path d="M43 0V12H40V0H43Z" fill="black"/>
<path d="M24 0V12H21V0H24Z" fill="black"/>
<path d="M8 20V34H0V20H8ZM3 31H5V23H3V31Z" fill="black"/>
<rect x="37.5" y="24.5" width="6" height="6" fill="#FCFF9D" stroke="black" stroke-width="3"/>
<rect x="18.5" y="24.5" width="6" height="6" fill="#FCFF9D" stroke="black" stroke-width="3"/>
<rect x="22.75" y="41.75" width="16.5" height="1.5" fill="#FCFF9D" stroke="black" stroke-width="1.5"/>
<rect x="40.75" y="38.75" width="1.5" height="1.5" fill="#FCFF9D" stroke="black" stroke-width="1.5"/>
</svg>
